<mxfile host="app.diagrams.net" agent="Mozilla/5.0 (Macintosh; Intel Mac OS X 10_15_7) AppleWebKit/537.36 (KHTML, like Gecko) Chrome/139.0.0.0 Safari/537.36" version="28.1.2">
  <diagram name="Page-1" id="uYA3SVWpcQxgwXvvOiWU">
    <mxGraphModel dx="1634" dy="24" grid="0" gridSize="10" guides="1" tooltips="1" connect="1" arrows="1" fold="1" page="0" pageScale="1" pageWidth="850" pageHeight="1100" math="0" shadow="0">
      <root>
        <mxCell id="0" />
        <mxCell id="1" parent="0" />
        <mxCell id="zjHMiJxW94jDNmOPaHS4-2" value="" style="rounded=1;whiteSpace=wrap;html=1;fillColor=#f5f5f5;fontColor=#333333;strokeColor=#666666;strokeWidth=2;" vertex="1" parent="1">
          <mxGeometry x="-60" y="820" width="710" height="235" as="geometry" />
        </mxCell>
        <mxCell id="zjHMiJxW94jDNmOPaHS4-1" value="&lt;span id=&quot;docs-internal-guid-e822da75-7fff-64b2-2181-59b8214d0fcc&quot;&gt;&lt;span style=&quot;font-family: Arial, sans-serif; background-color: transparent; font-variant-numeric: normal; font-variant-east-asian: normal; font-variant-alternates: normal; font-variant-position: normal; font-variant-emoji: normal; vertical-align: baseline; white-space-collapse: preserve;&quot;&gt;&lt;font style=&quot;font-size: 16px;&quot;&gt;instruction: 请解释一下大型语言模型中的“上下文腐化”这个概念。&lt;/font&gt;&lt;/span&gt;&lt;/span&gt;&lt;div&gt;&lt;span&gt;&lt;span style=&quot;font-family: Arial, sans-serif; background-color: transparent; font-variant-numeric: normal; font-variant-east-asian: normal; font-variant-alternates: normal; font-variant-position: normal; font-variant-emoji: normal; vertical-align: baseline; white-space-collapse: preserve;&quot;&gt;&lt;font style=&quot;font-size: 16px;&quot;&gt;input: &lt;/font&gt;&lt;/span&gt;&lt;/span&gt;&lt;/div&gt;&lt;div&gt;&lt;span&gt;&lt;span style=&quot;font-family: Arial, sans-serif; background-color: transparent; font-variant-numeric: normal; font-variant-east-asian: normal; font-variant-alternates: normal; font-variant-position: normal; font-variant-emoji: normal; vertical-align: baseline; white-space-collapse: preserve;&quot;&gt;&lt;font style=&quot;font-size: 16px;&quot;&gt;expected_output: 在大型语言模型（LLM）中，“上下文腐化”（context corruption/rot）描述的是一种性能衰退现象。具体来说，随着对话的进行，上下文窗口不断被填满，如果其中包含了大量无关、干扰性或矛盾的信息，模型在生成新内容时就容易受到“污染”，导致其输出的准确性和相关性显著下降。这背后的原因是模型通常会平等地关注整个上下文历史，缺乏一种有效的机制来主动忽略或“修剪”掉那些已经变得无关紧要的旧信息。即便是像Gemini 2.5这样的前沿模型，当处理的上下文接近十万个token时，也可能出现性能的明显下滑。为了缓解此问题，一种常见的做法是采用“总结-重启”策略：定期将长对话的核心内容提炼成摘要，然后用这个摘要作为初始上下文来启动一个新的、干净的会话实例。&lt;/font&gt;&lt;/span&gt;&lt;/span&gt;&lt;/div&gt;&lt;div&gt;&lt;span&gt;&lt;span style=&quot;font-family: Arial, sans-serif; background-color: transparent; font-variant-numeric: normal; font-variant-east-asian: normal; font-variant-alternates: normal; font-variant-position: normal; font-variant-emoji: normal; vertical-align: baseline; white-space-collapse: preserve;&quot;&gt;&lt;font style=&quot;font-size: 16px;&quot;&gt;actual_output:&lt;/font&gt;&lt;/span&gt;&lt;/span&gt;&lt;/div&gt;" style="text;html=1;align=left;verticalAlign=middle;whiteSpace=wrap;rounded=0;" vertex="1" parent="1">
          <mxGeometry x="-40" y="827.5" width="669" height="222.5" as="geometry" />
        </mxCell>
      </root>
    </mxGraphModel>
  </diagram>
</mxfile>
